# xmcd
#
# Track frame offsets:
#	150
#	14650
#	34920
#	53200
#	67512
#	86487
#	100670
#	118208
#	131814
#	147389
#	162414
#
# Disc length: 2398 seconds
# Revision: 0
# Processed by: cddbd v1.5.2PL0 Copyright (c) Steve Scherf et al.
# Submitted via: dBpowerAMP V12.0
#
DISCID=97095c0b
DTITLE=Lisa Biales - Belle of the Blues
DYEAR=2013
DGENRE=Blues Female
TTITLE0=Belle of the Blues
TTITLE1=Sad Sad Sunday
TTITLE2=Bad Things
TTITLE3=Mask
TTITLE4=Graveyard Dead Blues
TTITLE5=Baby Won't You Please Come Home
TTITLE6=In My Girlish Days
TTITLE7=Peach Pickin' Mama
TTITLE8=Black and White Blues
TTITLE9=Trouble
TTITLE10=Bad Girl
EXTD=
EXTT0=
EXTT1=
EXTT2=
EXTT3=
EXTT4=
EXTT5=
EXTT6=
EXTT7=
EXTT8=
EXTT9=
EXTT10=
PLAYORDER=
